<mxfile host="65bd71144e">
    <diagram id="cpuFo8P0KbJOFdlKzTWh" name="Page-1">
        <mxGraphModel dx="396" dy="231" grid="1" gridSize="10" guides="1" tooltips="1" connect="1" arrows="1" fold="1" page="1" pageScale="1" pageWidth="850" pageHeight="1100" math="0" shadow="0">
            <root>
                <mxCell id="0"/>
                <mxCell id="1" parent="0"/>
                <mxCell id="32" style="edgeStyle=none;html=1;exitX=0.5;exitY=1;exitDx=0;exitDy=0;entryX=0.5;entryY=0;entryDx=0;entryDy=0;fontSize=10;entryPerimeter=0;rounded=0;fontFamily=Helvetica;" parent="1" source="2" target="60" edge="1">
                    <mxGeometry relative="1" as="geometry">
                        <mxPoint x="100" y="160" as="targetPoint"/>
                    </mxGeometry>
                </mxCell>
                <mxCell id="2" value="Dashboard Page" style="shape=offPageConnector;whiteSpace=wrap;html=1;strokeWidth=1;fontFamily=Helvetica;fontSize=10;size=0.25;rounded=0;" parent="1" vertex="1">
                    <mxGeometry x="60" y="40" width="80" height="80" as="geometry"/>
                </mxCell>
                <mxCell id="13" style="edgeStyle=none;html=1;exitX=0.5;exitY=1;exitDx=0;exitDy=0;entryX=0.5;entryY=0;entryDx=0;entryDy=0;fontSize=10;rounded=0;fontFamily=Helvetica;" parent="1" source="3" target="12" edge="1">
                    <mxGeometry relative="1" as="geometry"/>
                </mxCell>
                <mxCell id="3" value="studentProfile&lt;br style=&quot;font-size: 10px;&quot;&gt;&lt;br style=&quot;font-size: 10px;&quot;&gt;evaluatedStudents" style="shape=hexagon;perimeter=hexagonPerimeter2;whiteSpace=wrap;html=1;fixedSize=1;fontFamily=Helvetica;strokeWidth=1;fontSize=10;rounded=0;" parent="1" vertex="1">
                    <mxGeometry x="40" y="280" width="120" height="80" as="geometry"/>
                </mxCell>
                <mxCell id="9" style="edgeStyle=none;html=1;exitX=0.5;exitY=1;exitDx=0;exitDy=0;entryX=0.5;entryY=0;entryDx=0;entryDy=0;fontSize=10;exitPerimeter=0;rounded=0;fontFamily=Helvetica;" parent="1" source="61" target="8" edge="1">
                    <mxGeometry relative="1" as="geometry">
                        <mxPoint x="100" y="680" as="sourcePoint"/>
                    </mxGeometry>
                </mxCell>
                <mxCell id="11" style="edgeStyle=none;html=1;exitX=0.5;exitY=1;exitDx=0;exitDy=0;entryX=0.5;entryY=0;entryDx=0;entryDy=0;fontSize=10;rounded=0;fontFamily=Helvetica;" parent="1" source="8" target="10" edge="1">
                    <mxGeometry relative="1" as="geometry"/>
                </mxCell>
                <mxCell id="8" value="Check evaluatedStudents" style="rounded=0;whiteSpace=wrap;html=1;fontFamily=Helvetica;strokeWidth=1;fontSize=10;" parent="1" vertex="1">
                    <mxGeometry x="40" y="720" width="120" height="40" as="geometry"/>
                </mxCell>
                <mxCell id="26" style="edgeStyle=none;html=1;exitX=1;exitY=0.5;exitDx=0;exitDy=0;entryX=0;entryY=0.5;entryDx=0;entryDy=0;fontSize=10;entryPerimeter=0;rounded=0;fontFamily=Helvetica;" parent="1" source="10" target="62" edge="1">
                    <mxGeometry relative="1" as="geometry">
                        <mxPoint x="330" y="840" as="targetPoint"/>
                    </mxGeometry>
                </mxCell>
                <mxCell id="27" value="No" style="edgeLabel;html=1;align=center;verticalAlign=middle;resizable=0;points=[];fontSize=10;rounded=0;fontFamily=Helvetica;" parent="26" vertex="1" connectable="0">
                    <mxGeometry x="-0.637" relative="1" as="geometry">
                        <mxPoint x="6" as="offset"/>
                    </mxGeometry>
                </mxCell>
                <mxCell id="29" style="edgeStyle=none;html=1;exitX=0.5;exitY=1;exitDx=0;exitDy=0;entryX=0.5;entryY=0;entryDx=0;entryDy=0;fontSize=10;entryPerimeter=0;rounded=0;fontFamily=Helvetica;" parent="1" source="10" target="63" edge="1">
                    <mxGeometry relative="1" as="geometry">
                        <mxPoint x="100" y="960" as="targetPoint"/>
                    </mxGeometry>
                </mxCell>
                <mxCell id="30" value="Yes" style="edgeLabel;html=1;align=center;verticalAlign=middle;resizable=0;points=[];fontSize=10;rounded=0;fontFamily=Helvetica;" parent="29" vertex="1" connectable="0">
                    <mxGeometry x="-0.6417" relative="1" as="geometry">
                        <mxPoint y="6" as="offset"/>
                    </mxGeometry>
                </mxCell>
                <mxCell id="10" value="Is the&lt;br style=&quot;font-size: 10px;&quot;&gt;evaluatedStudents&lt;br style=&quot;font-size: 10px;&quot;&gt;not empty?" style="rhombus;whiteSpace=wrap;html=1;fontFamily=Helvetica;strokeWidth=1;fontSize=10;rounded=0;" parent="1" vertex="1">
                    <mxGeometry x="40" y="800" width="120" height="80" as="geometry"/>
                </mxCell>
                <mxCell id="17" style="edgeStyle=none;html=1;exitX=0.5;exitY=1;exitDx=0;exitDy=0;entryX=0.5;entryY=0;entryDx=0;entryDy=0;entryPerimeter=0;fontSize=10;rounded=0;fontFamily=Helvetica;" parent="1" source="12" target="16" edge="1">
                    <mxGeometry relative="1" as="geometry"/>
                </mxCell>
                <mxCell id="12" value="Get studentProfile and&lt;br style=&quot;font-size: 10px;&quot;&gt;its evaluatedStudents" style="rounded=0;whiteSpace=wrap;html=1;fontFamily=Helvetica;strokeWidth=1;fontSize=10;" parent="1" vertex="1">
                    <mxGeometry x="40" y="400" width="120" height="40" as="geometry"/>
                </mxCell>
                <mxCell id="18" style="edgeStyle=none;html=1;exitX=0.5;exitY=1;exitDx=0;exitDy=0;exitPerimeter=0;entryX=0.5;entryY=0;entryDx=0;entryDy=0;fontSize=10;entryPerimeter=0;rounded=0;fontFamily=Helvetica;" parent="1" source="16" target="61" edge="1">
                    <mxGeometry relative="1" as="geometry">
                        <mxPoint x="100" y="600" as="targetPoint"/>
                    </mxGeometry>
                </mxCell>
                <mxCell id="16" value="Students" style="shape=cylinder3;whiteSpace=wrap;html=1;boundedLbl=1;backgroundOutline=1;size=15;fontSize=10;rounded=0;fontFamily=Helvetica;" parent="1" vertex="1">
                    <mxGeometry x="40" y="480" width="120" height="80" as="geometry"/>
                </mxCell>
                <mxCell id="36" style="edgeStyle=none;html=1;exitX=0.5;exitY=1;exitDx=0;exitDy=0;entryX=0.5;entryY=0;entryDx=0;entryDy=0;fontSize=10;exitPerimeter=0;rounded=0;fontFamily=Helvetica;" parent="1" source="63" target="34" edge="1">
                    <mxGeometry relative="1" as="geometry">
                        <mxPoint x="100" y="1040" as="sourcePoint"/>
                    </mxGeometry>
                </mxCell>
                <mxCell id="33" style="edgeStyle=none;html=1;exitX=0.5;exitY=1;exitDx=0;exitDy=0;entryX=0.5;entryY=0;entryDx=0;entryDy=0;fontSize=10;exitPerimeter=0;rounded=0;fontFamily=Helvetica;" parent="1" source="60" target="3" edge="1">
                    <mxGeometry relative="1" as="geometry">
                        <mxPoint x="100" y="240" as="sourcePoint"/>
                    </mxGeometry>
                </mxCell>
                <mxCell id="43" style="edgeStyle=none;html=1;exitX=0.5;exitY=1;exitDx=0;exitDy=0;entryX=0.5;entryY=0;entryDx=0;entryDy=0;fontSize=10;rounded=0;fontFamily=Helvetica;" parent="1" source="34" target="42" edge="1">
                    <mxGeometry relative="1" as="geometry"/>
                </mxCell>
                <mxCell id="34" value="Display the evaluation for the most recent evaluated student" style="rounded=0;whiteSpace=wrap;html=1;fontFamily=Helvetica;strokeWidth=1;fontSize=10;" parent="1" vertex="1">
                    <mxGeometry x="40" y="1080" width="120" height="40" as="geometry"/>
                </mxCell>
                <mxCell id="46" style="edgeStyle=none;html=1;exitX=0.5;exitY=1;exitDx=0;exitDy=0;exitPerimeter=0;entryX=0.5;entryY=0;entryDx=0;entryDy=0;fontSize=10;rounded=0;fontFamily=Helvetica;" parent="1" source="38" target="45" edge="1">
                    <mxGeometry relative="1" as="geometry"/>
                </mxCell>
                <mxCell id="38" value="Evaluations" style="shape=cylinder3;whiteSpace=wrap;html=1;boundedLbl=1;backgroundOutline=1;size=15;fontSize=10;rounded=0;fontFamily=Helvetica;" parent="1" vertex="1">
                    <mxGeometry x="40" y="1280" width="120" height="80" as="geometry"/>
                </mxCell>
                <mxCell id="44" style="edgeStyle=none;html=1;exitX=0.5;exitY=1;exitDx=0;exitDy=0;entryX=0.5;entryY=0;entryDx=0;entryDy=0;entryPerimeter=0;fontSize=10;rounded=0;fontFamily=Helvetica;" parent="1" source="42" target="38" edge="1">
                    <mxGeometry relative="1" as="geometry"/>
                </mxCell>
                <mxCell id="42" value="evaluations" style="shape=hexagon;perimeter=hexagonPerimeter2;whiteSpace=wrap;html=1;fixedSize=1;fontFamily=Helvetica;strokeWidth=1;fontSize=10;rounded=0;" parent="1" vertex="1">
                    <mxGeometry x="40" y="1160" width="120" height="80" as="geometry"/>
                </mxCell>
                <mxCell id="47" style="edgeStyle=none;html=1;exitX=1;exitY=0.5;exitDx=0;exitDy=0;fontSize=10;rounded=0;fontFamily=Helvetica;startArrow=none;" parent="1" source="62" edge="1">
                    <mxGeometry relative="1" as="geometry">
                        <mxPoint x="300" y="840" as="targetPoint"/>
                        <Array as="points"/>
                    </mxGeometry>
                </mxCell>
                <mxCell id="52" style="edgeStyle=none;html=1;exitX=0.5;exitY=1;exitDx=0;exitDy=0;entryX=0.5;entryY=0;entryDx=0;entryDy=0;fontSize=10;entryPerimeter=0;rounded=0;fontFamily=Helvetica;" parent="1" source="45" target="64" edge="1">
                    <mxGeometry relative="1" as="geometry">
                        <mxPoint x="100" y="1559.9999999999998" as="targetPoint"/>
                    </mxGeometry>
                </mxCell>
                <mxCell id="53" value="Yes" style="edgeLabel;html=1;align=center;verticalAlign=middle;resizable=0;points=[];fontSize=10;rounded=0;fontFamily=Helvetica;" parent="52" vertex="1" connectable="0">
                    <mxGeometry x="-0.725" relative="1" as="geometry">
                        <mxPoint y="9" as="offset"/>
                    </mxGeometry>
                </mxCell>
                <mxCell id="147" style="edgeStyle=none;html=1;exitX=1;exitY=0.5;exitDx=0;exitDy=0;fontFamily=Helvetica;fontSize=10;rounded=0;" parent="1" source="45" edge="1">
                    <mxGeometry relative="1" as="geometry">
                        <mxPoint x="220" y="840" as="targetPoint"/>
                        <Array as="points">
                            <mxPoint x="220" y="1440"/>
                        </Array>
                    </mxGeometry>
                </mxCell>
                <mxCell id="148" value="No" style="edgeLabel;html=1;align=center;verticalAlign=middle;resizable=0;points=[];fontSize=10;fontFamily=Helvetica;rounded=0;" parent="147" vertex="1" connectable="0">
                    <mxGeometry x="-0.9731" y="-1" relative="1" as="geometry">
                        <mxPoint x="11" y="-1" as="offset"/>
                    </mxGeometry>
                </mxCell>
                <mxCell id="45" value="Is the&lt;br style=&quot;font-size: 10px;&quot;&gt;evaluations&lt;br style=&quot;font-size: 10px;&quot;&gt;not empty?" style="rhombus;whiteSpace=wrap;html=1;fontFamily=Helvetica;strokeWidth=1;fontSize=10;rounded=0;" parent="1" vertex="1">
                    <mxGeometry x="40" y="1400" width="120" height="80" as="geometry"/>
                </mxCell>
                <mxCell id="60" value="Display Dashboard&lt;br style=&quot;font-size: 10px;&quot;&gt;Page" style="strokeWidth=1;html=1;shape=mxgraph.flowchart.display;whiteSpace=wrap;fontSize=10;rounded=0;fontFamily=Helvetica;" parent="1" vertex="1">
                    <mxGeometry x="40" y="160" width="120" height="80" as="geometry"/>
                </mxCell>
                <mxCell id="61" value="Display studentProfile" style="strokeWidth=1;html=1;shape=mxgraph.flowchart.display;whiteSpace=wrap;fontSize=10;rounded=0;fontFamily=Helvetica;" parent="1" vertex="1">
                    <mxGeometry x="40" y="600" width="120" height="80" as="geometry"/>
                </mxCell>
                <mxCell id="63" value="Display evaluatedStudents" style="strokeWidth=1;html=1;shape=mxgraph.flowchart.display;whiteSpace=wrap;fontSize=10;rounded=0;fontFamily=Helvetica;" parent="1" vertex="1">
                    <mxGeometry x="40" y="960" width="120" height="80" as="geometry"/>
                </mxCell>
                <mxCell id="67" style="edgeStyle=none;html=1;exitX=0.5;exitY=1;exitDx=0;exitDy=0;exitPerimeter=0;entryX=0.5;entryY=0;entryDx=0;entryDy=0;fontFamily=Helvetica;fontSize=10;rounded=0;" parent="1" source="64" target="66" edge="1">
                    <mxGeometry relative="1" as="geometry"/>
                </mxCell>
                <mxCell id="64" value="Display evaluations" style="strokeWidth=1;html=1;shape=mxgraph.flowchart.display;whiteSpace=wrap;fontSize=10;rounded=0;fontFamily=Helvetica;" parent="1" vertex="1">
                    <mxGeometry x="40" y="1560" width="120" height="80" as="geometry"/>
                </mxCell>
                <mxCell id="69" value="" style="edgeStyle=none;html=1;fontFamily=Helvetica;fontSize=10;rounded=0;" parent="1" source="66" target="68" edge="1">
                    <mxGeometry relative="1" as="geometry"/>
                </mxCell>
                <mxCell id="66" value="Wait for button press" style="shape=delay;whiteSpace=wrap;html=1;hachureGap=4;fontFamily=Helvetica;fontSize=10;rounded=0;" parent="1" vertex="1">
                    <mxGeometry x="40" y="1680" width="120" height="40" as="geometry"/>
                </mxCell>
                <mxCell id="117" style="edgeStyle=none;html=1;exitX=0.5;exitY=1;exitDx=0;exitDy=0;entryX=0.5;entryY=0;entryDx=0;entryDy=0;fontFamily=Helvetica;fontSize=10;rounded=0;" parent="1" source="68" target="115" edge="1">
                    <mxGeometry relative="1" as="geometry"/>
                </mxCell>
                <mxCell id="68" value="Check which button is pressed" style="whiteSpace=wrap;html=1;fontSize=10;hachureGap=4;rounded=0;fontFamily=Helvetica;" parent="1" vertex="1">
                    <mxGeometry x="40" y="1760" width="120" height="40" as="geometry"/>
                </mxCell>
                <mxCell id="114" style="edgeStyle=none;html=1;exitX=0.5;exitY=0;exitDx=0;exitDy=0;entryX=0.5;entryY=1;entryDx=0;entryDy=0;fontFamily=Helvetica;fontSize=10;rounded=0;" parent="1" source="97" target="100" edge="1">
                    <mxGeometry relative="1" as="geometry"/>
                </mxCell>
                <mxCell id="97" value="Buttons" style="ellipse;whiteSpace=wrap;html=1;aspect=fixed;fontSize=10;fontFamily=Helvetica;rounded=0;" parent="1" vertex="1">
                    <mxGeometry x="400" y="640" width="40" height="40" as="geometry"/>
                </mxCell>
                <mxCell id="98" style="edgeStyle=none;html=1;exitX=0.5;exitY=0;exitDx=0;exitDy=0;entryX=0.5;entryY=1;entryDx=0;entryDy=0;fontFamily=Helvetica;fontSize=10;rounded=0;" parent="1" source="100" target="105" edge="1">
                    <mxGeometry relative="1" as="geometry"/>
                </mxCell>
                <mxCell id="99" value="No" style="edgeLabel;html=1;align=center;verticalAlign=middle;resizable=0;points=[];fontFamily=Helvetica;fontSize=10;rounded=0;" parent="98" vertex="1" connectable="0">
                    <mxGeometry x="-0.8179" relative="1" as="geometry">
                        <mxPoint y="-13" as="offset"/>
                    </mxGeometry>
                </mxCell>
                <mxCell id="125" style="edgeStyle=none;html=1;exitX=1;exitY=0.5;exitDx=0;exitDy=0;entryX=0;entryY=0.5;entryDx=0;entryDy=0;fontFamily=Helvetica;fontSize=10;rounded=0;" parent="1" source="100" target="136" edge="1">
                    <mxGeometry relative="1" as="geometry">
                        <mxPoint x="580" y="560" as="targetPoint"/>
                    </mxGeometry>
                </mxCell>
                <mxCell id="127" value="Yes" style="edgeLabel;html=1;align=center;verticalAlign=middle;resizable=0;points=[];fontSize=10;fontFamily=Helvetica;rounded=0;" parent="125" vertex="1" connectable="0">
                    <mxGeometry x="-0.5924" y="-1" relative="1" as="geometry">
                        <mxPoint x="3" y="-1" as="offset"/>
                    </mxGeometry>
                </mxCell>
                <mxCell id="100" value="&quot;Submit an&lt;br style=&quot;font-size: 10px;&quot;&gt;Evaluation&quot;" style="rhombus;whiteSpace=wrap;html=1;fontFamily=Helvetica;strokeWidth=1;fontSize=10;rounded=0;" parent="1" vertex="1">
                    <mxGeometry x="360" y="520" width="120" height="80" as="geometry"/>
                </mxCell>
                <mxCell id="101" style="edgeStyle=none;html=1;exitX=0.5;exitY=0;exitDx=0;exitDy=0;entryX=0.5;entryY=1;entryDx=0;entryDy=0;fontFamily=Helvetica;fontSize=10;rounded=0;" parent="1" source="105" target="108" edge="1">
                    <mxGeometry relative="1" as="geometry"/>
                </mxCell>
                <mxCell id="102" value="No" style="edgeLabel;html=1;align=center;verticalAlign=middle;resizable=0;points=[];fontFamily=Helvetica;fontSize=10;rounded=0;" parent="101" vertex="1" connectable="0">
                    <mxGeometry x="-0.5632" y="-3" relative="1" as="geometry">
                        <mxPoint x="-3" y="-3" as="offset"/>
                    </mxGeometry>
                </mxCell>
                <mxCell id="103" style="edgeStyle=none;html=1;exitX=1;exitY=0.5;exitDx=0;exitDy=0;entryX=0;entryY=0.5;entryDx=0;entryDy=0;fontFamily=Helvetica;fontSize=10;rounded=0;" parent="1" source="105" target="137" edge="1">
                    <mxGeometry relative="1" as="geometry">
                        <mxPoint x="580" y="400" as="targetPoint"/>
                    </mxGeometry>
                </mxCell>
                <mxCell id="104" value="Yes" style="edgeLabel;html=1;align=center;verticalAlign=middle;resizable=0;points=[];fontFamily=Helvetica;fontSize=10;rounded=0;" parent="103" vertex="1" connectable="0">
                    <mxGeometry x="-0.66" y="1" relative="1" as="geometry">
                        <mxPoint x="6" y="1" as="offset"/>
                    </mxGeometry>
                </mxCell>
                <mxCell id="105" value="&quot;Evaluations of you&quot;" style="rhombus;whiteSpace=wrap;html=1;fontFamily=Helvetica;strokeWidth=1;fontSize=10;rounded=0;" parent="1" vertex="1">
                    <mxGeometry x="360" y="360" width="120" height="80" as="geometry"/>
                </mxCell>
                <mxCell id="106" style="edgeStyle=none;html=1;exitX=0.5;exitY=0;exitDx=0;exitDy=0;entryX=0.5;entryY=1;entryDx=0;entryDy=0;fontFamily=Helvetica;fontSize=10;rounded=0;" parent="1" source="108" target="111" edge="1">
                    <mxGeometry relative="1" as="geometry"/>
                </mxCell>
                <mxCell id="107" value="No" style="edgeLabel;html=1;align=center;verticalAlign=middle;resizable=0;points=[];fontFamily=Helvetica;fontSize=10;rounded=0;" parent="106" vertex="1" connectable="0">
                    <mxGeometry x="-0.3481" y="-2" relative="1" as="geometry">
                        <mxPoint x="-2" y="6" as="offset"/>
                    </mxGeometry>
                </mxCell>
                <mxCell id="123" style="edgeStyle=none;html=1;exitX=1;exitY=0.5;exitDx=0;exitDy=0;entryX=0;entryY=0.5;entryDx=0;entryDy=0;fontFamily=Helvetica;fontSize=10;rounded=0;" parent="1" source="108" target="134" edge="1">
                    <mxGeometry relative="1" as="geometry">
                        <mxPoint x="580" y="240" as="targetPoint"/>
                    </mxGeometry>
                </mxCell>
                <mxCell id="126" value="Yes" style="edgeLabel;html=1;align=center;verticalAlign=middle;resizable=0;points=[];fontSize=10;fontFamily=Helvetica;rounded=0;" parent="123" vertex="1" connectable="0">
                    <mxGeometry x="-0.6686" y="1" relative="1" as="geometry">
                        <mxPoint x="7" y="1" as="offset"/>
                    </mxGeometry>
                </mxCell>
                <mxCell id="108" value="&quot;Evaluate&quot;" style="rhombus;whiteSpace=wrap;html=1;fontFamily=Helvetica;strokeWidth=1;fontSize=10;rounded=0;" parent="1" vertex="1">
                    <mxGeometry x="360" y="200" width="120" height="80" as="geometry"/>
                </mxCell>
                <mxCell id="109" style="edgeStyle=none;html=1;exitX=1;exitY=0.5;exitDx=0;exitDy=0;entryX=0;entryY=0.5;entryDx=0;entryDy=0;fontFamily=Helvetica;fontSize=10;rounded=0;" parent="1" source="111" target="113" edge="1">
                    <mxGeometry relative="1" as="geometry"/>
                </mxCell>
                <mxCell id="110" value="Yes" style="edgeLabel;html=1;align=center;verticalAlign=middle;resizable=0;points=[];fontFamily=Helvetica;fontSize=10;rounded=0;" parent="109" vertex="1" connectable="0">
                    <mxGeometry x="-0.6105" relative="1" as="geometry">
                        <mxPoint x="4" as="offset"/>
                    </mxGeometry>
                </mxCell>
                <mxCell id="132" style="edgeStyle=none;html=1;exitX=0;exitY=0.5;exitDx=0;exitDy=0;entryX=1;entryY=0.5;entryDx=0;entryDy=0;fontFamily=Helvetica;fontSize=10;rounded=0;" parent="1" source="111" target="131" edge="1">
                    <mxGeometry relative="1" as="geometry"/>
                </mxCell>
                <mxCell id="133" value="No" style="edgeLabel;html=1;align=center;verticalAlign=middle;resizable=0;points=[];fontSize=10;fontFamily=Helvetica;rounded=0;" parent="132" vertex="1" connectable="0">
                    <mxGeometry x="-0.405" y="2" relative="1" as="geometry">
                        <mxPoint x="4" y="-2" as="offset"/>
                    </mxGeometry>
                </mxCell>
                <mxCell id="111" value="&quot;Logout&quot;" style="rhombus;whiteSpace=wrap;html=1;fontFamily=Helvetica;strokeWidth=1;fontSize=10;rounded=0;" parent="1" vertex="1">
                    <mxGeometry x="360" y="40" width="120" height="80" as="geometry"/>
                </mxCell>
                <mxCell id="139" style="edgeStyle=none;html=1;exitX=1;exitY=0.5;exitDx=0;exitDy=0;entryX=0;entryY=0.5;entryDx=0;entryDy=0;fontFamily=Helvetica;fontSize=10;rounded=0;" parent="1" source="113" target="138" edge="1">
                    <mxGeometry relative="1" as="geometry"/>
                </mxCell>
                <mxCell id="113" value="Remove the studentToken from the browser cookies" style="whiteSpace=wrap;html=1;fontSize=10;hachureGap=4;rounded=0;fontFamily=Helvetica;" parent="1" vertex="1">
                    <mxGeometry x="560" y="60" width="120" height="40" as="geometry"/>
                </mxCell>
                <mxCell id="115" value="Buttons" style="ellipse;whiteSpace=wrap;html=1;aspect=fixed;fontSize=10;fontFamily=Helvetica;rounded=0;" parent="1" vertex="1">
                    <mxGeometry x="80" y="1840" width="40" height="40" as="geometry"/>
                </mxCell>
                <mxCell id="119" style="edgeStyle=none;html=1;exitX=0;exitY=0.5;exitDx=0;exitDy=0;fontFamily=Helvetica;fontSize=10;rounded=0;" parent="1" source="118" edge="1">
                    <mxGeometry relative="1" as="geometry">
                        <mxPoint x="100" y="1659.8888888888887" as="targetPoint"/>
                    </mxGeometry>
                </mxCell>
                <mxCell id="118" value="Wait" style="ellipse;whiteSpace=wrap;html=1;aspect=fixed;fontSize=10;fontFamily=Helvetica;rounded=0;" parent="1" vertex="1">
                    <mxGeometry x="250" y="1640" width="40" height="40" as="geometry"/>
                </mxCell>
                <mxCell id="131" value="Wait" style="ellipse;whiteSpace=wrap;html=1;aspect=fixed;fontSize=10;fontFamily=Helvetica;rounded=0;" parent="1" vertex="1">
                    <mxGeometry x="240" y="60" width="40" height="40" as="geometry"/>
                </mxCell>
                <mxCell id="143" style="edgeStyle=none;html=1;exitX=1;exitY=0.5;exitDx=0;exitDy=0;fontFamily=Helvetica;fontSize=10;rounded=0;" parent="1" source="134" edge="1">
                    <mxGeometry relative="1" as="geometry">
                        <mxPoint x="780" y="400" as="targetPoint"/>
                        <Array as="points">
                            <mxPoint x="780" y="240"/>
                        </Array>
                    </mxGeometry>
                </mxCell>
                <mxCell id="134" value="Change requestPath&lt;br&gt;&amp;nbsp;to /dashboard&lt;br&gt;/evaluate/" style="rounded=0;whiteSpace=wrap;html=1;fontFamily=Helvetica;strokeWidth=1;fontSize=10;" parent="1" vertex="1">
                    <mxGeometry x="560" y="220" width="120" height="40" as="geometry"/>
                </mxCell>
                <mxCell id="141" style="edgeStyle=none;html=1;exitX=1;exitY=0.5;exitDx=0;exitDy=0;entryX=0.5;entryY=0;entryDx=0;entryDy=0;fontFamily=Helvetica;fontSize=10;rounded=0;" parent="1" source="136" target="140" edge="1">
                    <mxGeometry relative="1" as="geometry">
                        <Array as="points">
                            <mxPoint x="780" y="560"/>
                        </Array>
                    </mxGeometry>
                </mxCell>
                <mxCell id="136" value="Change requestPath&lt;br&gt;&amp;nbsp;to /dashboard&lt;br&gt;/evaluate/" style="rounded=0;whiteSpace=wrap;html=1;fontFamily=Helvetica;strokeWidth=1;fontSize=10;" parent="1" vertex="1">
                    <mxGeometry x="560" y="540" width="120" height="40" as="geometry"/>
                </mxCell>
                <mxCell id="142" style="edgeStyle=none;html=1;exitX=1;exitY=0.5;exitDx=0;exitDy=0;fontFamily=Helvetica;fontSize=10;rounded=0;" parent="1" source="137" edge="1">
                    <mxGeometry relative="1" as="geometry">
                        <mxPoint x="780" y="560" as="targetPoint"/>
                        <Array as="points">
                            <mxPoint x="780" y="400"/>
                        </Array>
                    </mxGeometry>
                </mxCell>
                <mxCell id="137" value="Change requestPath&lt;br&gt;&amp;nbsp;to /dashboard&lt;br&gt;/evaluationsOfYou/" style="rounded=0;whiteSpace=wrap;html=1;fontFamily=Helvetica;strokeWidth=1;fontSize=10;" parent="1" vertex="1">
                    <mxGeometry x="560" y="380" width="120" height="40" as="geometry"/>
                </mxCell>
                <mxCell id="144" style="edgeStyle=none;html=1;exitX=0.5;exitY=1;exitDx=0;exitDy=0;fontFamily=Helvetica;fontSize=10;rounded=0;" parent="1" source="138" edge="1">
                    <mxGeometry relative="1" as="geometry">
                        <mxPoint x="779.75" y="240" as="targetPoint"/>
                    </mxGeometry>
                </mxCell>
                <mxCell id="138" value="Change requestPath&lt;br&gt;&amp;nbsp;to /login/" style="rounded=0;whiteSpace=wrap;html=1;fontFamily=Helvetica;strokeWidth=1;fontSize=10;" parent="1" vertex="1">
                    <mxGeometry x="720" y="60" width="120" height="40" as="geometry"/>
                </mxCell>
                <mxCell id="140" value="Reroute" style="shape=offPageConnector;whiteSpace=wrap;html=1;strokeWidth=1;fontFamily=Helvetica;fontSize=10;size=0.25;rounded=0;" parent="1" vertex="1">
                    <mxGeometry x="740" y="600" width="80" height="80" as="geometry"/>
                </mxCell>
                <mxCell id="151" style="edgeStyle=none;html=1;exitX=0.5;exitY=1;exitDx=0;exitDy=0;exitPerimeter=0;entryX=0.5;entryY=0;entryDx=0;entryDy=0;fontFamily=Helvetica;fontSize=10;rounded=0;" parent="1" source="62" target="150" edge="1">
                    <mxGeometry relative="1" as="geometry"/>
                </mxCell>
                <mxCell id="62" value="Display Empty" style="strokeWidth=1;html=1;shape=mxgraph.flowchart.display;whiteSpace=wrap;fontSize=10;rounded=0;fontFamily=Helvetica;" parent="1" vertex="1">
                    <mxGeometry x="240" y="800" width="120" height="80" as="geometry"/>
                </mxCell>
                <mxCell id="150" value="Wait" style="ellipse;whiteSpace=wrap;html=1;aspect=fixed;fontSize=10;fontFamily=Helvetica;rounded=0;" parent="1" vertex="1">
                    <mxGeometry x="280" y="920" width="40" height="40" as="geometry"/>
                </mxCell>
                <mxCell id="156" style="edgeStyle=none;html=1;exitX=0;exitY=0.5;exitDx=0;exitDy=0;fontFamily=Helvetica;fontSize=10;rounded=0;" parent="1" source="155" edge="1">
                    <mxGeometry relative="1" as="geometry">
                        <mxPoint x="200" y="1660" as="targetPoint"/>
                        <Array as="points">
                            <mxPoint x="200" y="1760"/>
                        </Array>
                    </mxGeometry>
                </mxCell>
                <mxCell id="155" value="Dashboard Buttons" style="shape=offPageConnector;whiteSpace=wrap;html=1;strokeWidth=1;fontFamily=Helvetica;fontSize=10;size=0.25;rounded=0;" parent="1" vertex="1">
                    <mxGeometry x="230" y="1720" width="80" height="80" as="geometry"/>
                </mxCell>
            </root>
        </mxGraphModel>
    </diagram>
</mxfile>